# xmcd
#
# Track frame offsets:
#	150
#	13516
#	32868
#	42912
#	57443
#	71555
#	86362
#	101806
#	116018
#	130269
#	146118
#	159381
#	176409
#
# Disc length: 2527 seconds
#
# Revision: 0
# Processed by: cddbd v1.5.2PL0 Copyright (c) Steve Scherf et al.
# Submitted via: EasyCDDAExtractor 2010.4.0.0
#
DISCID=b109dd0d
DTITLE=Various Artist - 25 BEST OF รวมดาว
DYEAR=2549
DGENRE=Country
TTITLE0=อ้อยใจ/รณชัย อัฉรพรรณี
TTITLE1=นกเขาคู่รัก/สุทธิพงศ์ จุฑามาศ
TTITLE2=จูบเย้ยจันทร์/พีรพงษ์ ทวินันท์
TTITLE3=มนต์รักอสูร/รณชัย อัฉรพรรี
TTITLE4=ใต้ร่มมลุลี/รณชัย อัฉรพรรณี
TTITLE5=มนต์รักดอกคำใต้/ประวิทย์ อัฉรพรรณี
TTITLE6=ดำเนินทราย/รณชัย อัฉรพรรณี
TTITLE7=สักขีแม่ปิง/ประวิทย์ ทวินันท์
TTITLE8=แต่ปางก่อน/รณชัย อัฉรพรรณี
TTITLE9=จุดใต้ตำต่อ/ไพศาล อาทิตย์/อาริดา
TTITLE10=ถุยจาถุย/ชาญชัย อัฉรพรรณี
TTITLE11=รัก/มานิตย์ อัฉรพรรี
TTITLE12=พ่อแงแม่งอล/สุทธิพงษ์ จุฑามาศ
EXTD=
EXTT0=
EXTT1=
EXTT2=
EXTT3=
EXTT4=
EXTT5=
EXTT6=
EXTT7=
EXTT8=
EXTT9=
EXTT10=
EXTT11=
EXTT12=
PLAYORDER=
